<?xml version="1.0" encoding="UTF-8"?>
<svg xmlns="http://www.w3.org/2000/svg" version="1.1" viewBox="0 0 200 200">
  <defs>
    <style>
      .cls-1 {
        fill: #d7d7d7;
      }
    </style>
  </defs>
  <!-- Generator: Adobe Illustrator 28.7.1, SVG Export Plug-In . SVG Version: 1.2.0 Build 142)  -->
  <g>
    <g id="_레이어_1" data-name="레이어_1">
      <g id="_레이어_1-2" data-name="_레이어_1">
        <path class="cls-1" d="M197.5,114.7c-4.4-19.2-19.6-34.4-38.7-38.7-10.7-2.4-21.9-3.1-32.9-1.9-3.8.4-7.6,1-11.3,1.9-9.4,2.1-17.8,6.9-24.5,13.4h0c-3,3.2-6.9,5.5-11.3,6.5-10.2,2.3-21,2.3-31.3,0-8.4-1.9-15-8.5-16.9-16.9-1.2-5.1-1.8-10.4-1.8-15.6h0c0-5.3.6-10.5,1.8-15.6,1.9-8.4,8.5-15,16.9-16.9h0c5.1-1.2,10.4-1.8,15.6-1.8s10.5.6,15.6,1.8c8.4,1.9,15,8.5,16.9,16.9,2.1,9.3,2.3,19.1.6,28.5,5.2-3.1,10.8-5.4,16.8-6.8,4.4-1,8.8-1.7,13.3-2.1.3-8.7-.4-17.5-2.4-26-4.4-19.2-19.6-34.4-38.7-38.7-14.4-3.3-29.7-3.3-44.2,0C22,6.8,6.8,22,2.5,41.2c-1.7,7.2-2.5,14.7-2.5,22.1v109.7c0,10,5.8,19.2,14.8,23.5l6.4,3c3.6,1.7,7.8-.9,7.8-4.9v-74.9c3.8,2,7.9,3.5,12.2,4.5,7.2,1.7,14.6,2.5,22.1,2.5s14.9-.8,22.1-2.5c9.8-2.2,18.5-7.3,25.3-14.3,2.9-2.7,6.4-4.7,10.4-5.6h0c5.1-1.2,10.4-1.8,15.6-1.8s10.5.6,15.6,1.8c2.6.6,5.1,1.7,7.3,3.1l-52.3,52.3c-1.4-2.2-2.5-4.6-3.1-7.3-2.1-9.3-2.3-19.1-.6-28.5-5.2,3.1-10.8,5.4-16.8,6.7-4.4,1-8.8,1.7-13.3,2.1-.3,8.7.4,17.5,2.4,26,4.4,19.2,19.6,34.4,38.7,38.7,7.2,1.6,14.7,2.5,22.1,2.5s14.9-.8,22.1-2.5c19.2-4.4,34.4-19.6,38.7-38.7,3.3-14.4,3.3-29.7,0-44.2h0ZM169.3,152.4c-1.9,8.4-8.5,15-16.9,16.9-10.2,2.3-21,2.3-31.3,0-2.5-.6-4.8-1.6-6.9-2.9l52.2-52.2c1.3,2.1,2.3,4.4,2.9,6.9,2.3,10.2,2.3,21,0,31.3h0Z"/>
      </g>
    </g>
  </g>
</svg>